<?xml version="1.0" encoding="utf-8"?>
<!-- Generator: Adobe Illustrator 27.3.1, SVG Export Plug-In . SVG Version: 6.00 Build 0)  -->
<svg version="1.1" id="Layer_1" xmlns="http://www.w3.org/2000/svg" xmlns:xlink="http://www.w3.org/1999/xlink" x="0px" y="0px"
	 viewBox="0 0 64 64" style="enable-background:new 0 0 64 64;" xml:space="preserve">
<style type="text/css">
	.st0{fill:#F9F9F9;}
	.st1{fill:#FF004F;}
	.st2{fill:#FFFFFF;}
	.st3{fill:#00F7EF;}
	.st4{fill:#CCCCCC;}
	.st5{fill:#518EF8;}
	.st6{fill:#28B446;}
	.st7{fill:#F2F2F2;}
	.st8{fill:#FFD837;}
	.st9{fill:#F14336;}
	.st10{fill:#7E2D25;}
</style>
<path class="st0" d="M11.2,0h41.6C59,0,64,5,64,11.2v41.6C64,59,59,64,52.8,64H11.2C5,64,0,59,0,52.8V11.2C0,5,5,0,11.2,0z"/>
<g id="guidlines">
</g>
<g id="FB">
</g>
<g id="ig">
</g>
<g id="yt">
</g>
<g id="twitter">
</g>
<g id="snapchat">
</g>
<g id="WA">
</g>
<g id="Pinterrest">
</g>
<g id="Layer_9">
</g>
<g id="Layer_10">
</g>
<g id="Layer_11">
	<g>
		<g>
			<path class="st1" d="M130.5,19.2V27c-0.4,0-0.9,0.1-1.4,0.1c-3.8,0-7.4-1.4-10.1-3.7v16.8c0,3.4-1.1,6.6-3,9.1
				c-2.7,3.6-7.1,6.1-12.1,6.1c-5.4,0-10.2-2.9-12.8-7.1c2.7,2.5,6.4,4.1,10.3,4.1c4.9,0,9.3-2.4,12-6.1c1.9-2.5,3-5.7,3-9.1V20.3
				c2.7,2.4,6.2,3.7,10.1,3.7c0.5,0,0.9,0,1.4-0.1v-5.1c0.8,0.2,1.4,0.3,2.2,0.3C130.1,19.2,130.5,19.2,130.5,19.2z"/>
			<path class="st1" d="M105.9,25v8.7c-0.6-0.2-1.3-0.3-1.9-0.3c-3.7,0-6.8,3.1-6.8,6.9c0,0.8,0.2,1.6,0.4,2.4
				c-1.7-1.3-2.9-3.3-2.9-5.6c0-3.8,3-6.9,6.8-6.9c0.7,0,1.3,0.1,1.9,0.3v-5.6c0.2,0,0.3,0,0.5,0C104.6,24.9,105.3,24.9,105.9,25z"
				/>
			<path class="st1" d="M120.2,12.9c-1.5-1.4-2.6-3.2-3.2-5.2h2c0,0.4,0,0.8,0,1.2C119.2,10.3,119.6,11.6,120.2,12.9z"/>
		</g>
	</g>
	<path class="st2" d="M128,19v5.1c-0.4,0.1-0.9,0.1-1.4,0.1c-3.8,0-7.4-1.4-10.1-3.7v16.8c0,3.4-1.1,6.6-3,9.1
		c-2.8,3.7-7.1,6.1-12,6.1c-4,0-7.6-1.6-10.3-4.1c-1.4-2.4-2.3-5.1-2.3-8c0-8.2,6.5-14.9,14.7-15.2v5.6c-0.6-0.2-1.3-0.3-1.9-0.3
		c-3.7,0-6.8,3.1-6.8,6.9c0,2.3,1.1,4.4,2.9,5.6c0.9,2.6,3.5,4.6,6.4,4.6c3.7,0,6.8-3.1,6.8-6.9V7.7h6.2c0.6,2,1.7,3.8,3.2,5.2
		C121.7,15.9,124.6,18.2,128,19z"/>
	<g>
		<g>
			<g>
				<path class="st3" d="M103.4,22v2.9c-8.1,0.3-14.7,6.9-14.7,15.2c0,3,0.8,5.7,2.3,8c-2.9-2.8-4.7-6.7-4.7-11.1
					c0-8.4,6.8-15.2,15.1-15.2C102.2,21.9,102.8,22,103.4,22z"/>
				<path class="st3" d="M117,7.7h-6.2v32.7c0,3.8-3,6.9-6.8,6.9c-3,0-5.4-1.9-6.4-4.6c1.1,0.8,2.5,1.3,3.9,1.3c3.7,0,6.8-3,6.8-6.9
					V4.4h8.2v0.2c0,0.3,0,0.7,0.1,1C116.6,6.3,116.8,7,117,7.7z"/>
			</g>
		</g>
		<path class="st3" d="M128,15.9L128,15.9v3c-3.4-0.7-6.3-3-7.9-6C122.2,14.8,124.9,15.9,128,15.9z"/>
	</g>
</g>
<g id="Layer_12">
</g>
<g id="Layer_13">
</g>
<g id="Layer_14">
</g>
<g id="Layer_15">
</g>
<g id="Layer_16">
</g>
<g id="Layer_17">
</g>
<g>
	<path class="st4" d="M53.2,28.9v22.2l-7-1.3l-3.1-3.7l-13-14.4l11-7.8c5.5,7.3,5.7,5.5,5.7,5.5s2.7-4.1,6.2-0.6L53.2,28.9z"/>
	<path class="st5" d="M26.6,27.2l22.9,29.4c-0.1,0-0.3,0-0.4,0H11.6L26.6,27.2z"/>
	<path class="st6" d="M41.2,23.8l-34,28.6V14.8c0-2.3,1.9-4.2,4.2-4.2h24.8c-1.1,1.8,2.9,3,2.9,5.3C39,18.2,40.1,22,41.2,23.8z"/>
	<path class="st7" d="M53.2,51.1v1.4c0,2.2-1.6,3.9-3.8,4.1L30.3,37.7l4.6-4.7l10.7,10.6l0.6,0.6L53.2,51.1z"/>
	<path class="st8" d="M40,27.9L34.9,33l-4.6,4.7L11.6,56.6h-0.3c-2.3,0-4.2-1.9-4.2-4.2l29-29.4c0.5,0.9,4.3,0,5,0.7l1.4,1.8
		C43.3,26.4,39.4,27.1,40,27.9z"/>
	<path class="st2" d="M18,27.7c-3.7,0-6.6-3-6.6-6.6s3-6.6,6.6-6.6c1.8,0,3.4,0.7,4.7,1.9l-1.5,1.5c-0.8-0.8-2-1.3-3.1-1.3
		c-2.5,0-4.5,2-4.5,4.5s2,4.5,4.5,4.5c2.1,0,3.8-1.4,4.3-3.4H18v-2.2h6.6V21C24.6,24.7,21.7,27.7,18,27.7z"/>
	<path class="st9" d="M36.1,10.6c2.1-3.7,6.2-6.2,10.7-6.2c6.9,0,12.4,5.6,12.4,12.4c0,1.7-0.4,3.4-1,4.8c-0.6,1.5-1.5,2.8-2.7,4
		c-0.9,1-1.8,2.1-2.5,3.1c-5,7.1-6.2,15.2-6.2,15.2s-1.4-8.8-6.9-16.1c-0.6-0.8-1.2-1.5-1.9-2.2h0c-0.8-0.8-1.4-1.6-2-2.5
		c-1.1-1.8-1.7-4-1.7-6.3C34.5,14.6,35.1,12.4,36.1,10.6z"/>
	<path class="st10" d="M46.9,10.2c3.6,0,6.6,3,6.6,6.6s-3,6.6-6.6,6.6s-6.6-3-6.6-6.6S43.2,10.2,46.9,10.2z"/>
</g>
</svg>
