<?xml version="1.0" encoding="utf-8"?>
<!-- Generator: Adobe Illustrator 27.3.1, SVG Export Plug-In . SVG Version: 6.00 Build 0)  -->
<svg version="1.1" id="Layer_1" xmlns="http://www.w3.org/2000/svg" xmlns:xlink="http://www.w3.org/1999/xlink" x="0px" y="0px"
	 viewBox="0 0 64 64" style="enable-background:new 0 0 64 64;" xml:space="preserve">
<style type="text/css">
	.st0{fill:#FF004F;}
	.st1{fill:#FFFFFF;}
	.st2{fill:#00F7EF;}
</style>
<path d="M11.2,0h41.6C59,0,64,5,64,11.2v41.6C64,59,59,64,52.8,64H11.2C5,64,0,59,0,52.8V11.2C0,5,5,0,11.2,0z"/>
<g id="guidlines">
</g>
<g id="FB">
</g>
<g id="ig">
</g>
<g id="yt">
</g>
<g id="twitter">
</g>
<g id="snapchat">
</g>
<g id="WA">
</g>
<g id="Pinterrest">
</g>
<g id="Layer_9">
</g>
<g id="Layer_10">
</g>
<g id="Layer_11">
	<g>
		<g>
			<path class="st0" d="M54,21.2v7.9c-0.4,0-0.9,0.1-1.4,0.1c-3.8,0-7.4-1.4-10.1-3.7v16.8c0,3.4-1.1,6.6-3,9.1
				c-2.7,3.6-7.1,6.1-12.1,6.1c-5.4,0-10.2-2.9-12.8-7.1c2.7,2.5,6.4,4.1,10.3,4.1c4.9,0,9.3-2.4,12-6.1c1.9-2.5,3-5.7,3-9.1V22.4
				c2.7,2.4,6.2,3.7,10.1,3.7c0.5,0,0.9,0,1.4-0.1V21c0.8,0.2,1.4,0.3,2.2,0.3C53.7,21.2,54,21.2,54,21.2z"/>
			<path class="st0" d="M29.5,27.1v8.7c-0.6-0.2-1.3-0.3-1.9-0.3c-3.7,0-6.8,3.1-6.8,6.9c0,0.8,0.2,1.6,0.4,2.4
				c-1.7-1.3-2.9-3.3-2.9-5.6c0-3.8,3-6.9,6.8-6.9c0.7,0,1.3,0.1,1.9,0.3V27c0.2,0,0.3,0,0.5,0C28.2,27,28.9,27,29.5,27.1z"/>
			<path class="st0" d="M43.8,15c-1.5-1.4-2.6-3.2-3.2-5.2h2c0,0.4,0,0.8,0,1.2C42.8,12.4,43.2,13.7,43.8,15z"/>
		</g>
	</g>
	<path class="st1" d="M51.6,21.1v5.1c-0.4,0.1-0.9,0.1-1.4,0.1c-3.8,0-7.4-1.4-10.1-3.7v16.8c0,3.4-1.1,6.6-3,9.1
		c-2.8,3.7-7.1,6.1-12,6.1c-4,0-7.6-1.6-10.3-4.1c-1.4-2.4-2.3-5.1-2.3-8c0-8.2,6.5-14.9,14.7-15.2v5.6c-0.6-0.2-1.3-0.3-1.9-0.3
		c-3.7,0-6.8,3.1-6.8,6.9c0,2.3,1.1,4.4,2.9,5.6c0.9,2.6,3.5,4.6,6.4,4.6c3.7,0,6.8-3.1,6.8-6.9V9.8h6.2c0.6,2,1.7,3.8,3.2,5.2
		C45.3,18,48.2,20.3,51.6,21.1z"/>
	<g>
		<g>
			<g>
				<path class="st2" d="M27,24.1V27c-8.1,0.3-14.7,6.9-14.7,15.2c0,3,0.8,5.7,2.3,8c-2.9-2.8-4.7-6.7-4.7-11.1
					C10,30.7,16.8,24,25.1,24C25.7,24,26.4,24,27,24.1z"/>
				<path class="st2" d="M40.6,9.8h-6.2v32.7c0,3.8-3,6.9-6.8,6.9c-3,0-5.4-1.9-6.4-4.6c1.1,0.8,2.5,1.3,3.9,1.3
					c3.7,0,6.8-3,6.8-6.9V6.5h8.2v0.2c0,0.3,0,0.7,0.1,1C40.2,8.4,40.4,9.1,40.6,9.8z"/>
			</g>
		</g>
		<path class="st2" d="M51.6,17.9L51.6,17.9v3c-3.4-0.7-6.3-3-7.9-6C45.8,16.9,48.5,18,51.6,17.9z"/>
	</g>
</g>
<g id="Layer_12">
</g>
<g id="Layer_13">
</g>
<g id="Layer_14">
</g>
<g id="Layer_15">
</g>
<g id="Layer_16">
</g>
<g id="Layer_17">
</g>
</svg>
