<?xml version="1.0" encoding="utf-8"?>
<!-- Generator: Adobe Illustrator 27.3.1, SVG Export Plug-In . SVG Version: 6.00 Build 0)  -->
<svg version="1.1" id="Layer_1" xmlns="http://www.w3.org/2000/svg" xmlns:xlink="http://www.w3.org/1999/xlink" x="0px" y="0px"
	 viewBox="0 0 64 64" style="enable-background:new 0 0 64 64;" xml:space="preserve">
<style type="text/css">
	.st0{fill:#5F4EED;}
	.st1{fill:#FF004F;}
	.st2{fill:#FFFFFF;}
	.st3{fill:#00F7EF;}
	.st4{fill:#CCCCCC;}
	.st5{fill:#518EF8;}
	.st6{fill:#28B446;}
	.st7{fill:#F2F2F2;}
	.st8{fill:#FFD837;}
	.st9{fill:#F14336;}
	.st10{fill:#7E2D25;}
	.st11{fill-rule:evenodd;clip-rule:evenodd;fill:#007FFF;}
	.st12{fill-rule:evenodd;clip-rule:evenodd;fill:#FFFFFF;}
	.st13{fill:#0175BC;}
	.st14{opacity:0.2;fill:#FFFFFF;enable-background:new    ;}
	.st15{opacity:0.1;fill:#010101;enable-background:new    ;}
	.st16{fill:url(#SVGID_1_);}
	.st17{fill:#F04923;}
	.st18{fill-rule:evenodd;clip-rule:evenodd;fill:#FF9A00;}
</style>
<path class="st0" d="M11.2,0h41.6C59,0,64,5,64,11.2v41.6C64,59,59,64,52.8,64H11.2C5,64,0,59,0,52.8V11.2C0,5,5,0,11.2,0z"/>
<g id="guidlines">
</g>
<g id="FB">
</g>
<g id="ig">
</g>
<g id="yt">
</g>
<g id="twitter">
</g>
<g id="snapchat">
</g>
<g id="WA">
</g>
<g id="Pinterrest">
</g>
<g id="Layer_9">
</g>
<g id="Layer_10">
</g>
<g id="Layer_11">
	<g>
		<g>
			<path class="st1" d="M130.5,19.2V27c-0.4,0-0.9,0.1-1.4,0.1c-3.8,0-7.4-1.4-10.1-3.7v16.8c0,3.4-1.1,6.6-3,9.1
				c-2.7,3.6-7.1,6.1-12.1,6.1c-5.4,0-10.2-2.9-12.8-7.1c2.7,2.5,6.4,4.1,10.3,4.1c4.9,0,9.3-2.4,12-6.1c1.9-2.5,3-5.7,3-9.1V20.3
				c2.7,2.4,6.2,3.7,10.1,3.7c0.5,0,0.9,0,1.4-0.1v-5.1c0.8,0.2,1.4,0.3,2.2,0.3C130.1,19.2,130.5,19.2,130.5,19.2z"/>
			<path class="st1" d="M105.9,25v8.7c-0.6-0.2-1.3-0.3-1.9-0.3c-3.7,0-6.8,3.1-6.8,6.9c0,0.8,0.2,1.6,0.4,2.4
				c-1.7-1.3-2.9-3.3-2.9-5.6c0-3.8,3-6.9,6.8-6.9c0.7,0,1.3,0.1,1.9,0.3v-5.6c0.2,0,0.3,0,0.5,0C104.6,24.9,105.3,24.9,105.9,25z"
				/>
			<path class="st1" d="M120.2,12.9c-1.5-1.4-2.6-3.2-3.2-5.2h2c0,0.4,0,0.8,0,1.2C119.2,10.3,119.6,11.6,120.2,12.9z"/>
		</g>
	</g>
	<path class="st2" d="M128,19v5.1c-0.4,0.1-0.9,0.1-1.4,0.1c-3.8,0-7.4-1.4-10.1-3.7v16.8c0,3.4-1.1,6.6-3,9.1
		c-2.8,3.7-7.1,6.1-12,6.1c-4,0-7.6-1.6-10.3-4.1c-1.4-2.4-2.3-5.1-2.3-8c0-8.2,6.5-14.9,14.7-15.2v5.6c-0.6-0.2-1.3-0.3-1.9-0.3
		c-3.7,0-6.8,3.1-6.8,6.9c0,2.3,1.1,4.4,2.9,5.6c0.9,2.6,3.5,4.6,6.4,4.6c3.7,0,6.8-3.1,6.8-6.9V7.7h6.2c0.6,2,1.7,3.8,3.2,5.2
		C121.7,15.9,124.6,18.2,128,19z"/>
	<g>
		<g>
			<g>
				<path class="st3" d="M103.4,22v2.9c-8.1,0.3-14.7,6.9-14.7,15.2c0,3,0.8,5.7,2.3,8c-2.9-2.8-4.7-6.7-4.7-11.1
					c0-8.4,6.8-15.2,15.1-15.2C102.2,21.9,102.8,22,103.4,22z"/>
				<path class="st3" d="M117,7.7h-6.2v32.7c0,3.8-3,6.9-6.8,6.9c-3,0-5.4-1.9-6.4-4.6c1.1,0.8,2.5,1.3,3.9,1.3c3.7,0,6.8-3,6.8-6.9
					V4.4h8.2v0.2c0,0.3,0,0.7,0.1,1C116.6,6.3,116.8,7,117,7.7z"/>
			</g>
		</g>
		<path class="st3" d="M128,15.9L128,15.9v3c-3.4-0.7-6.3-3-7.9-6C122.2,14.8,124.9,15.9,128,15.9z"/>
	</g>
</g>
<g id="Layer_12">
</g>
<g id="Layer_13">
</g>
<g id="Layer_14">
</g>
<g id="Layer_15">
</g>
<g id="Layer_16">
</g>
<g id="Layer_17">
</g>
<g>
	<path class="st4" d="M136.8,22.7v22.2l-7-1.3l-3.1-3.7l-13-14.4l11-7.8c5.5,7.3,5.7,5.5,5.7,5.5s2.7-4.1,6.2-0.6L136.8,22.7z"/>
	<path class="st5" d="M110.1,21.1L133,50.5c-0.1,0-0.3,0-0.4,0H95.2L110.1,21.1z"/>
	<path class="st6" d="M124.8,17.7l-34,28.6V8.6c0-2.3,1.9-4.2,4.2-4.2h24.8c-1.1,1.8,2.9,3,2.9,5.3C122.6,12,123.7,15.9,124.8,17.7z
		"/>
	<path class="st7" d="M136.8,44.9v1.4c0,2.2-1.6,3.9-3.8,4.1l-19.1-18.9l4.6-4.7l10.7,10.6l0.6,0.6L136.8,44.9z"/>
	<path class="st8" d="M123.6,21.8l-5.1,5.1l-4.6,4.7L95.2,50.5h-0.3c-2.3,0-4.2-1.9-4.2-4.2l29-29.4c0.5,0.9,4.3,0,5,0.7l1.4,1.8
		C126.8,20.2,123,21,123.6,21.8z"/>
	<path class="st2" d="M101.6,21.5c-3.7,0-6.6-3-6.6-6.6s3-6.6,6.6-6.6c1.8,0,3.4,0.7,4.7,1.9l-1.5,1.5c-0.8-0.8-2-1.3-3.1-1.3
		c-2.5,0-4.5,2-4.5,4.5s2,4.5,4.5,4.5c2.1,0,3.8-1.4,4.3-3.4h-4.3v-2.2h6.6v1.1C108.2,18.6,105.2,21.5,101.6,21.5z"/>
	<path class="st9" d="M119.7,4.5c2.1-3.7,6.2-6.2,10.7-6.2c6.9,0,12.4,5.6,12.4,12.4c0,1.7-0.4,3.4-1,4.8c-0.6,1.5-1.5,2.8-2.7,4
		c-0.9,1-1.8,2.1-2.5,3.1c-5,7.1-6.2,15.2-6.2,15.2s-1.4-8.8-6.9-16.1c-0.6-0.8-1.2-1.5-1.9-2.2h0c-0.8-0.8-1.4-1.6-2-2.5
		c-1.1-1.8-1.7-4-1.7-6.3C118,8.4,118.6,6.3,119.7,4.5z"/>
	<path class="st10" d="M130.4,4.1c3.6,0,6.6,3,6.6,6.6s-3,6.6-6.6,6.6s-6.6-3-6.6-6.6S126.8,4.1,130.4,4.1z"/>
</g>
<g>
	<path class="st11" d="M-66.3,68h56c4.4,0,8-3.6,8-8V4c0-4.4-3.6-8-8-8h-56c-4.4,0-8,3.6-8,8v56C-74.3,64.4-70.7,68-66.3,68z"/>
	<path class="st12" d="M-38.3,8c-13.3,0-24,9.9-24,22.2c0,7,3.5,13.2,8.9,17.3V56l8.2-4.5c2.2,0.6,4.5,0.9,6.9,0.9
		c13.3,0,24-9.9,24-22.2S-25,8-38.3,8L-38.3,8z M-35.9,37.9l-6.1-6.5l-11.9,6.5L-40.8,24l6.3,6.5l11.8-6.5L-35.9,37.9L-35.9,37.9z"
		/>
</g>
<g>
	<path class="st13" d="M106.7-36.3c-13,0-23.6,10.6-23.6,23.6c0,4,1,8,3,11.5c0,0.1,0.1,0.2,0.1,0.2c0.7,1.1-1.6,3.3-2.7,4.2
		c-0.3,0.2-0.4,0.5-0.4,0.9c0,0.3,0.2,0.7,0.6,0.8c0.2,0.1,3.7,1.7,7.6,0.2C95.6,9,101,11,106.7,11c13,0,23.6-10.6,23.6-23.6
		S119.8-36.3,106.7-36.3z"/>
	<path class="st2" d="M110.5,6.7C104,7.9,98,5.9,93.6,2c-3.1,1.5-6.2,0.5-6.2,0.5l0,0c1.9-1.9,2.3-4.8,1.2-7.3
		c-1.6-3.6-2.1-7.6-1.2-11.9c1.6-7.9,8.1-14.1,16-15.3c13.5-2.2,24.9,9.3,22.7,22.8C124.9-1.3,118.5,5.2,110.5,6.7z"/>
	<path class="st14" d="M110.5,6.7C104,7.9,98,5.9,93.6,2c-2.8,1.2-5.2,0.9-6.2,0.5c-0.1,0.1-0.2,0.3-0.3,0.4l0,0c0,0,3.5,1,6.6-0.5
		C98,6.4,104,8.4,110.5,7.2c8-1.5,14.3-8,15.7-16c0.2-1,0.2-2,0.3-2.9c0,0.8-0.1,1.6-0.3,2.4C124.9-1.3,118.5,5.2,110.5,6.7z"/>
	<path class="st14" d="M106.7-35.8c13,0,23.5,10.5,23.6,23.4c0-0.1,0-0.2,0-0.2c0-13-10.6-23.6-23.6-23.6S83.1-25.7,83.1-12.6
		c0,0.1,0,0.1,0,0.2C83.3-25.3,93.8-35.8,106.7-35.8z"/>
	<path class="st15" d="M106.7,10.5c-5.7,0-11.2-2.1-15.5-5.8c-3.8,1.6-7.4-0.1-7.6-0.2c-0.3-0.1-0.4-0.4-0.5-0.6
		c0,0.1-0.1,0.2-0.1,0.3c0,0.3,0.2,0.7,0.6,0.8c0.2,0.1,3.7,1.7,7.6,0.2C95.6,9,101,11,106.7,11c13,0,23.6-10.6,23.6-23.6
		c0-0.1,0-0.2,0-0.2C130.2,0.1,119.7,10.5,106.7,10.5z"/>
	<path class="st15" d="M103.5-32.1c12.5-2,23.2,7.7,22.9,19.9c0.6-12.4-10.3-22.4-22.9-20.4c-7.9,1.3-14.4,7.5-16,15.3
		c-0.3,1.6-0.5,3.2-0.4,4.8c0-1.4,0.1-2.8,0.4-4.3C89.1-24.6,95.6-30.8,103.5-32.1z"/>
	<path class="st13" d="M93.9-16.6c-0.5,0-1,0.4-1,1v7.9c0,0.5,0.4,1,1,1c0.5,0,1-0.4,1-1v-7.9C94.9-16.1,94.5-16.6,93.9-16.6z"/>
	<path class="st13" d="M116.6-16.6c-2.2,0-3.9,1.8-3.9,3.9v2c0,2.2,1.8,3.9,3.9,3.9c2.2,0,3.9-1.8,3.9-3.9v-2
		C120.5-14.8,118.8-16.6,116.6-16.6z M118.6-10.7c0,1.1-0.9,2-2,2s-2-0.9-2-2v-2c0-1.1,0.9-2,2-2s2,0.9,2,2V-10.7z"/>
	<path class="st13" d="M106.7-16.6c-1.2,0-2.2,0.5-3,1.4c-0.7-0.8-1.8-1.4-3-1.4c-0.8,0-1.5,0.2-2.1,0.6c-0.2-0.3-0.5-0.6-0.9-0.6
		c-0.5,0-1,0.4-1,1v7.9c0,0.5,0.4,1,1,1s1-0.4,1-1v-4.9c0-1.1,0.9-2,2-2c1.1,0,2,0.9,2,2v4.9c0,0.5,0.4,1,1,1s1-0.4,1-1v-4.9
		c0-1.1,0.9-2,2-2s2,0.9,2,2v4.9c0,0.5,0.4,1,1,1s1-0.4,1-1v-4.9C110.7-14.8,108.9-16.6,106.7-16.6z"/>
	<circle class="st13" cx="93.9" cy="-19.5" r="1"/>
	
		<linearGradient id="SVGID_1_" gradientUnits="userSpaceOnUse" x1="84.878" y1="85.5553" x2="127.735" y2="65.5708" gradientTransform="matrix(1 0 0 -1 0 63.8898)">
		<stop  offset="0" style="stop-color:#FFFFFF;stop-opacity:0.2"/>
		<stop  offset="1" style="stop-color:#FFFFFF;stop-opacity:0"/>
	</linearGradient>
	<path class="st16" d="M106.7-36.3c-13,0-23.6,10.6-23.6,23.6c0,4,1,8,3,11.5c0,0.1,0.1,0.2,0.1,0.2c0.7,1.1-1.6,3.3-2.7,4.2
		c-0.3,0.2-0.4,0.5-0.4,0.9c0,0.3,0.2,0.7,0.6,0.8c0.2,0.1,3.7,1.7,7.6,0.2C95.6,9,101,11,106.7,11c13,0,23.6-10.6,23.6-23.6
		S119.8-36.3,106.7-36.3z"/>
</g>
<path class="st2" d="M126.4,28.1c-2.7-8.6-8-12.4-17.5-12.4c-11.6,0-17.4,7-17.4,20.8c0,11.9,6.4,18.8,17.6,19c0.2,0,0.3,0,0.5,0
	c4.7,0,8.9-1.6,11.8-4.3c2.2-2.1,3.4-4.9,3.4-7.8c0-3.1-1.1-5.8-3.3-7.7c-0.9-0.8-1.9-1.4-3.1-1.9c-0.2-3.1-1.5-5.7-3.6-7.3
	c-3.5-2.6-9.5-2.4-12.9,2c-0.6,0.8-0.5,2,0.3,2.6c0.8,0.6,2,0.5,2.6-0.3c2.1-2.7,5.8-2.8,7.9-1.3c0.9,0.7,1.6,1.8,1.9,3.3
	c-2-0.3-4.2-0.3-6.6,0c-2.2,0.3-4,1.3-5.2,2.9c-1.1,1.4-1.4,3.2-1.1,5c0.4,2.4,2.1,5.4,8,5.4c4.4,0,7.7-3.1,8.6-8.2
	c0.3,0.2,0.6,0.4,0.9,0.7c1.4,1.2,2.1,2.9,2.1,4.9c0,1.9-0.8,3.8-2.3,5.2c-2.2,2.2-5.7,3.4-9.6,3.3c-9.2-0.2-14-5.5-14-15.3
	c0-11.7,4.4-17.1,13.8-17.1c7.7,0,11.8,2.8,14,9.8c0.3,1,1.3,1.5,2.3,1.2C126.1,30.1,126.7,29.1,126.4,28.1z M109.4,42.4
	c-4,0-4.2-1.5-4.3-2.3c-0.2-0.9,0-1.6,0.5-2.2c0.6-0.8,1.5-1.3,2.7-1.4c1-0.1,2-0.2,3-0.2c1.2,0,2.3,0.1,3.3,0.3
	C114.3,38.6,113.2,42.4,109.4,42.4z"/>
<g>
	<path class="st17" d="M130.4,58.7H94.9c-3.3,0-5.9-2.6-5.9-5.9V17.2c0-3.3,2.6-5.9,5.9-5.9h35.5c3.3,0,5.9,2.7,5.9,5.9v35.5
		C136.3,56,133.7,58.7,130.4,58.7z"/>
	<path class="st2" d="M118.8,40.3c-1.5,0-2.6-1.2-2.6-2.6c0-1.5,1.2-2.6,2.6-2.6c1.5,0,2.6,1.2,2.6,2.6
		C121.5,39.1,120.3,40.3,118.8,40.3z M119.3,44.6c-1.8,1.8-5.2,1.9-6.2,1.9c-1,0-4.5-0.1-6.2-1.9c-0.3-0.3-0.3-0.7,0-1
		c0.3-0.3,0.7-0.3,1,0c1.1,1.1,3.6,1.5,5.3,1.5c1.7,0,4.2-0.4,5.3-1.5c0.3-0.3,0.7-0.3,1,0C119.6,43.9,119.6,44.3,119.3,44.6
		L119.3,44.6z M104.6,37.6c0-1.5,1.2-2.6,2.6-2.6c1.4,0,2.6,1.2,2.6,2.6c0,1.5-1.2,2.6-2.6,2.6C105.8,40.3,104.6,39.1,104.6,37.6z
		 M129.9,35c0-2-1.6-3.7-3.7-3.7c-1,0-1.9,0.4-2.6,1c-2.5-1.8-6-3-9.8-3.1l1.7-7.9l5.5,1.2c0.1,1.4,1.2,2.5,2.6,2.5
		c1.5,0,2.6-1.2,2.6-2.6s-1.2-2.6-2.6-2.6c-1,0-1.9,0.6-2.3,1.5l-6.1-1.3c-0.2,0-0.3,0-0.5,0.1c-0.1,0.1-0.2,0.2-0.3,0.4l-1.9,8.8
		c-3.9,0.1-7.4,1.3-10,3.1c-0.7-0.6-1.6-1-2.5-1c-2,0-3.7,1.6-3.7,3.7c0,1.5,0.9,2.8,2.2,3.4c-0.1,0.4-0.1,0.7-0.1,1.1
		c0,5.7,6.6,10.3,14.7,10.3s14.7-4.6,14.7-10.3c0-0.4,0-0.7-0.1-1.1C129,37.8,129.9,36.5,129.9,35L129.9,35z"/>
</g>
<g>
	<path class="st12" d="M106.9,19.1c-1.2,0.1-2.7,0.2-4.1,0.4c-2.2,0.3-4.4,0.7-6.2,1.5c-3.5,1.4-5.9,4.5-5.9,8.9
		c0,5.6,3.6,8.5,8.2,8.5c1.5,0,2.8-0.2,3.9-0.5c1.8-0.6,3.3-1.6,5.1-3.5c1,1.4,1.3,2.1,3.1,3.6c0.5,0.2,1,0.2,1.3-0.1
		c1.1-1,3.1-2.7,4.2-3.6c0.5-0.4,0.4-1,0.1-1.4c-1-1.3-2.1-2.5-2.1-5v-8.6c0-3.6,0.3-6.9-2.4-9.4c-2.2-2-5.6-2.8-8.3-2.8h-1.1
		c-4.8,0.3-10,2.4-11.1,8.4c-0.2,0.8,0.4,1,0.8,1.1l5.3,0.7c0.6-0.1,0.9-0.6,0.9-1c0.5-2.1,2.2-3.1,4.1-3.3h0.4c1.1,0,2.4,0.5,3,1.4
		c0.8,1.1,0.7,2.7,0.7,4L106.9,19.1L106.9,19.1z M105.9,30.4c-0.7,1.3-1.8,2.2-3,2.5c-0.2,0-0.5,0.1-0.8,0.1c-2.1,0-3.3-1.6-3.3-4
		c0-3,1.8-4.5,4.1-5.1c1.2-0.3,2.7-0.4,4.1-0.4v1.1C106.9,26.7,107,28.5,105.9,30.4z"/>
	<path class="st18" d="M119.9,41.9c-0.2,0-0.4,0-0.6,0.1c-0.2,0.1-0.5,0.2-0.7,0.3l-0.3,0.1l-0.4,0.2v0c-4.6,1.9-9.5,3-14,3.1
		c-0.2,0-0.3,0-0.5,0c-7.1,0-12.8-3.3-18.6-6.5c-0.2-0.1-0.4-0.2-0.6-0.2c-0.3,0-0.5,0.1-0.7,0.3c-0.2,0.2-0.3,0.5-0.3,0.7
		c0,0.4,0.2,0.7,0.5,0.9C89,45.7,95,50.1,103,50.1c0.2,0,0.3,0,0.5,0c5.1-0.1,10.9-1.8,15.4-4.7l0,0c0.6-0.4,1.2-0.8,1.7-1.2
		c0.3-0.3,0.6-0.7,0.6-1.1C121.2,42.4,120.6,41.9,119.9,41.9z M126.1,39.3L126.1,39.3c0-0.5-0.1-0.8-0.3-1.1l0,0l0,0
		c-0.2-0.2-0.4-0.3-0.6-0.4c-0.6-0.2-1.4-0.3-2.5-0.4c-0.7,0-1.6,0.1-2.4,0.3l0-0.1l-0.8,0.3l0,0l-0.5,0.2v0c-0.5,0.2-1,0.5-1.5,0.8
		c-0.3,0.2-0.5,0.5-0.5,0.9c0,0.2,0.1,0.5,0.3,0.7c0.2,0.2,0.4,0.2,0.6,0.2c0,0,0.1,0,0.1,0l0,0l0,0c0.4-0.1,1-0.1,1.7-0.2
		c0.6-0.1,1.2-0.1,1.8-0.1c0.4,0,0.7,0,1,0.1c0.1,0,0.2,0.1,0.3,0.1c0,0,0,0,0,0c0,0,0,0.1,0,0.2c0,0.5-0.2,1.3-0.5,2.1
		c-0.3,0.8-0.6,1.7-0.8,2.2c-0.1,0.1-0.1,0.3-0.1,0.4c0,0.2,0.1,0.5,0.3,0.7c0.2,0.2,0.4,0.2,0.6,0.2h0c0.3,0,0.6-0.1,0.8-0.3
		c2.1-1.9,2.8-4.9,2.9-6.6L126.1,39.3z"/>
</g>
<path class="st12" d="M110.7,44.6c-11.7,0-21.1,9.5-21.1,21.1c0,9.3,6,17.2,14.4,20c1.1,0.2,1.4-0.4,1.4-1c0-0.5,0-1.9,0-3.7
	c-5.9,1.3-7.1-2.8-7.1-2.8c-1-2.4-2.3-3.1-2.3-3.1c-1.9-1.3,0.1-1.3,0.1-1.3c2.1,0.1,3.2,2.2,3.2,2.2c1.9,3.2,4.9,2.3,6.1,1.8
	c0.2-1.4,0.7-2.3,1.3-2.8c-4.7-0.5-9.6-2.3-9.6-10.4c0-2.3,0.8-4.2,2.2-5.7c-0.2-0.5-0.9-2.7,0.2-5.6c0,0,1.8-0.6,5.8,2.2
	c1.7-0.5,3.5-0.7,5.3-0.7c1.8,0,3.6,0.2,5.3,0.7c4-2.7,5.8-2.2,5.8-2.2c1.2,2.9,0.4,5.1,0.2,5.6c1.4,1.5,2.2,3.4,2.2,5.7
	c0,8.1-4.9,9.9-9.6,10.4c0.8,0.7,1.4,1.9,1.4,3.9c0,2.6,0,5.2,0,5.8c0,0.6,0.3,1.2,1.4,1c8.4-2.8,14.4-10.7,14.4-20
	C131.8,54.1,122.4,44.6,110.7,44.6z"/>
<g>
	<circle class="st0" cx="206.2" cy="97.2" r="20.7"/>
	<g>
		<g>
			<path class="st0" d="M206.2,118.9c-11.9,0-21.7-9.7-21.7-21.7c0-11.9,9.7-21.7,21.7-21.7c11.9,0,21.7,9.7,21.7,21.7
				C227.9,109.2,218.2,118.9,206.2,118.9z M206.2,77.6c-10.9,0-19.7,8.8-19.7,19.7c0,10.9,8.8,19.7,19.7,19.7
				c10.9,0,19.7-8.8,19.7-19.7C225.9,86.4,217.1,77.6,206.2,77.6z"/>
		</g>
		<g>
			<path class="st0" d="M206.2,89.4c-3.8,0-7.5-0.5-11-1.4c-2.1-0.6-4.1-1.3-6-2.2L190,84c1.8,0.8,3.7,1.5,5.7,2.1
				c3.3,0.9,6.9,1.4,10.5,1.4c3.6,0,7.2-0.5,10.5-1.4c2-0.5,3.9-1.2,5.7-2.1l0.8,1.8c-1.9,0.9-3.9,1.6-6,2.2
				C213.7,88.9,210,89.4,206.2,89.4z"/>
		</g>
		<g>
			<path class="st0" d="M211.2,118.1l-1.6-1.1c1.8-2.7,3.3-5.6,4.2-8.7c0.3-0.9,0.5-1.7,0.7-2.6c0.6-2.6,0.9-5.3,0.9-8
				c0-0.1,0-0.3,0-0.4l0,0c0-3.1-0.5-6.2-1.3-9.2c-0.3-0.9-0.6-1.8-0.9-2.7c-1.1-2.8-2.5-5.5-4.3-8l1.6-1.2c1.9,2.6,3.4,5.4,4.6,8.5
				c0.3,0.9,0.7,1.9,0.9,2.8c0.9,3.1,1.4,6.4,1.4,9.7l0,0c0,0.1,0,0.3,0,0.4c0,2.8-0.3,5.7-1,8.4c-0.2,0.9-0.5,1.9-0.8,2.8
				C214.7,112.1,213.1,115.2,211.2,118.1z"/>
		</g>
		<g>
			<path class="st0" d="M201.2,118.1c-1.9-2.9-3.4-6-4.5-9.2c-0.3-0.9-0.6-1.8-0.8-2.8c-0.6-2.7-1-5.6-1-8.4c0-0.1,0-0.3,0-0.4l0,0
				c0-3.3,0.5-6.5,1.4-9.7c0.3-1,0.6-1.9,0.9-2.8c1.1-3,2.7-5.8,4.6-8.5l1.6,1.2c-1.8,2.5-3.2,5.2-4.3,8c-0.3,0.9-0.6,1.8-0.9,2.7
				c-0.9,3-1.3,6-1.3,9.1l0,0c0,0.1,0,0.3,0,0.4c0,2.7,0.3,5.4,0.9,8c0.2,0.9,0.4,1.8,0.7,2.6c1,3.1,2.4,6,4.2,8.7L201.2,118.1z"/>
		</g>
		<g>
			<path class="st0" d="M222.9,109.8c-1.8-0.9-3.7-1.6-5.8-2.2c-3.4-1-7.1-1.4-10.8-1.4c-3.7,0-7.4,0.5-10.8,1.4
				c-2,0.6-4,1.3-5.8,2.2l-0.9-1.8c1.9-0.9,4-1.7,6.1-2.3c3.6-1,7.4-1.5,11.4-1.5c3.9,0,7.8,0.5,11.4,1.5c2.2,0.6,4.2,1.4,6.1,2.3
				L222.9,109.8z"/>
		</g>
		<g>
			<rect x="185.5" y="96.2" class="st0" width="41.4" height="2"/>
		</g>
		<g>
			<rect x="205.2" y="76.6" class="st0" width="2" height="41.4"/>
		</g>
	</g>
	<path class="st0" d="M216.4,101.8h-20.3c-2.5,0-4.5-2-4.5-4.5v0c0-2.5,2-4.5,4.5-4.5h20.3c2.5,0,4.5,2,4.5,4.5v0
		C220.9,99.7,218.9,101.8,216.4,101.8z"/>
	<g>
		<path class="st0" d="M202.4,95.1l-1.2,4.3h-1l-0.8-3.1l-0.8,3.1l-1,0l-1.2-4.3h0.9l0.8,3.4l0.9-3.4h1l0.8,3.3l0.8-3.3H202.4z"/>
		<path class="st0" d="M209.3,95.1l-1.2,4.3h-1l-0.8-3.1l-0.8,3.1l-1,0l-1.2-4.3h0.9l0.8,3.4l0.9-3.4h1l0.8,3.3l0.8-3.3H209.3z"/>
		<path class="st0" d="M216.1,95.1l-1.2,4.3h-1l-0.8-3.1l-0.8,3.1l-1,0l-1.2-4.3h0.9l0.8,3.4l0.9-3.4h1l0.8,3.3l0.8-3.3H216.1z"/>
	</g>
</g>
<path id="Web_1_" class="st2" d="M47.8,42.9c2.1-3.1,3.4-6.8,3.4-10.9c0-10.6-8.6-19.2-19.2-19.2c-6.8,0-12.8,3.6-16.2,9
	c0,0-0.1,0.1-0.1,0.1c0,0.1,0,0.1-0.1,0.2c-1.8,2.9-2.8,6.3-2.8,9.9c0,4,1.3,7.8,3.4,10.9c0,0,0,0,0,0c0,0,0,0,0.1,0.1
	c3.5,4.9,9.2,8.2,15.7,8.2c6.4,0,12.1-3.2,15.6-8.1C47.7,43,47.7,43,47.8,42.9C47.8,42.9,47.8,42.9,47.8,42.9z M46.3,40.6
	c-2.3-1.4-4.8-2.4-7.5-3c0.2-1.8,0.3-3.7,0.3-5.6c0-1.5-0.1-3-0.2-4.5c2.8-0.7,5.4-1.8,7.9-3.3c1.2,2.3,1.9,4.9,1.9,7.7
	C48.8,35.2,47.9,38.1,46.3,40.6z M32,48.8c-1.4,0-3.3-3.4-4.2-9.2c1.4-0.2,2.8-0.4,4.2-0.4c1.4,0,2.8,0.1,4.2,0.4
	C35.3,45.3,33.4,48.8,32,48.8z M32,36.8c-1.5,0-3,0.1-4.5,0.4c-0.2-1.6-0.3-3.3-0.3-5.2c0-1.4,0.1-2.7,0.2-4
	c1.5,0.2,3.1,0.4,4.6,0.4c1.6,0,3.1-0.1,4.6-0.4c0.1,1.3,0.2,2.6,0.2,4c0,1.8-0.1,3.6-0.3,5.2C35,36.9,33.5,36.8,32,36.8z M32,15.2
	c1.5,0,3.5,3.9,4.4,10.4C34.9,25.9,33.5,26,32,26c-1.5,0-2.9-0.1-4.4-0.4C28.5,19.1,30.5,15.2,32,15.2z M45.6,22.2
	c-2.1,1.3-4.4,2.3-6.8,2.9c-0.5-3.8-1.4-7.1-2.8-9.4C39.9,16.7,43.3,19,45.6,22.2z M28,15.7c-1.3,2.3-2.3,5.6-2.8,9.4
	c-2.4-0.6-4.7-1.6-6.8-2.9C20.7,19,24.1,16.7,28,15.7z M17.2,24.3c2.5,1.5,5.1,2.6,7.9,3.3c-0.1,1.5-0.2,3-0.2,4.5
	c0,1.9,0.1,3.8,0.3,5.6c-2.6,0.6-5.1,1.6-7.5,3c-1.5-2.5-2.4-5.5-2.4-8.6C15.2,29.2,15.9,26.6,17.2,24.3z M19,42.6
	c2-1.1,4.2-2,6.4-2.6c0.5,3.3,1.4,6.2,2.6,8.2C24.4,47.4,21.3,45.4,19,42.6z M36,48.3c1.2-2,2.1-4.9,2.6-8.2
	c2.2,0.6,4.4,1.4,6.4,2.6C42.7,45.4,39.6,47.4,36,48.3z"/>
<g>
	<path class="st0" d="M69.7,113.9L69.7,113.9c-0.6,0-1.2,0.5-1.2,1.1l0,0c0,0.8-0.9,1.3-1.6,1l0,0c-0.6-0.2-1.3,0-1.5,0.6l0,0
		c-0.3,0.7-1.3,0.9-1.9,0.4l0,0c-0.5-0.4-1.2-0.4-1.6,0l0,0c-0.6,0.6-1.6,0.4-1.9-0.3l0,0c-0.3-0.6-1-0.8-1.5-0.6l0,0
		c-0.7,0.3-1.6-0.2-1.7-1l0,0c-0.1-0.6-0.6-1.1-1.2-1.1l0,0c-0.8,0-1.4-0.8-1.2-1.5l0,0c0.2-0.6-0.1-1.3-0.8-1.5l0,0
		c-0.8-0.3-1-1.2-0.6-1.9l0,0c0.4-0.5,0.3-1.2-0.2-1.6l0,0c-0.6-0.5-0.5-1.5,0.2-1.9l0,0c0.5-0.3,0.7-1,0.4-1.6h0
		c-0.4-0.7,0-1.6,0.8-1.7l0,0c0.6-0.1,1.1-0.7,1-1.3l0,0c-0.1-0.8,0.6-1.5,1.4-1.3v0c0.6,0.1,1.2-0.3,1.4-0.9l0,0
		c0.2-0.8,1.1-1.2,1.8-0.7v0c0.5,0.3,1.2,0.2,1.6-0.3v0c0.5-0.7,1.5-0.7,1.9,0l0,0c0.4,0.5,1.1,0.6,1.6,0.3l0,0
		c0.7-0.5,1.6-0.1,1.8,0.7l0,0c0.2,0.6,0.8,1,1.4,0.9l0,0c0.8-0.2,1.5,0.5,1.4,1.3l0,0c-0.1,0.6,0.4,1.2,1,1.3l0,0
		c0.8,0.1,1.3,1,0.9,1.7l0,0c-0.3,0.6-0.1,1.3,0.5,1.6l0,0c0.7,0.4,0.8,1.4,0.2,1.9l0,0c-0.5,0.4-0.5,1.1-0.1,1.6l0,0
		c0.5,0.6,0.3,1.6-0.5,1.9l0,0c-0.6,0.2-0.9,0.9-0.7,1.5l0,0C71.1,113.1,70.5,113.9,69.7,113.9z"/>
	<g>
		<g>
			<path class="st2" d="M62.8,104.4v-1.9c0-0.1-0.1-0.2-0.2-0.2h-1.1c-0.1,0-0.2,0.1-0.2,0.2c0,0.3-0.6,1.7-1.4,2
				c-0.2,0.1-0.3,0.1-0.5,0.1c-0.1,0-0.2,0.1-0.2,0.2v1.4c0,0.1,0.1,0.2,0.2,0.2h0.7c0.1,0,0.2,0.1,0.2,0.2c0,2.5,0,4,0,4
				c0.1,1.1,0.7,1.8,1.8,2.1c0.4,0.1,0.9,0.2,1.4,0.2c0.5,0,1.1-0.1,1.6-0.3c0.1,0,0.1-0.1,0.1-0.2v-1.8c0-0.1-0.1-0.2-0.3-0.2
				c-0.2,0.1-0.5,0.1-0.7,0.2c-0.5,0.2-1,0.1-1.3-0.3c0-0.1-0.1-0.1-0.1-0.2c-0.1-0.3-0.1-0.6-0.1-0.8v-2.7c0-0.1,0.1-0.2,0.2-0.2h2
				c0.1,0,0.2-0.1,0.2-0.2v-1.4c0-0.1-0.1-0.2-0.2-0.2h-2C62.9,104.6,62.8,104.5,62.8,104.4z"/>
		</g>
	</g>
</g>
</svg>
