<?xml version="1.0" encoding="utf-8"?>
<!-- Generator: Adobe Illustrator 27.3.1, SVG Export Plug-In . SVG Version: 6.00 Build 0)  -->
<svg version="1.1" id="Layer_1" xmlns="http://www.w3.org/2000/svg" xmlns:xlink="http://www.w3.org/1999/xlink" x="0px" y="0px"
	 viewBox="0 0 64 64" style="enable-background:new 0 0 64 64;" xml:space="preserve">
<style type="text/css">
	.st0{fill:#FFFFFF;}
</style>
<path d="M11.2,0h41.6C59,0,64,5,64,11.2v41.6C64,59,59,64,52.8,64H11.2C5,64,0,59,0,52.8V11.2C0,5,5,0,11.2,0z"/>
<g>
	<path class="st0" d="M35.7,29L50,12.4h-3.4L34.2,26.8l-9.9-14.4H12.8l15,21.8l-15,17.4h3.4l13.1-15.3l10.5,15.3h11.4L35.7,29
		L35.7,29z M31,34.4l-1.5-2.2L17.4,14.9h5.2l9.8,14l1.5,2.2l12.7,18.2h-5.2L31,34.4L31,34.4z"/>
</g>
</svg>
