<?xml version="1.0" encoding="utf-8"?>
<!-- Generator: Adobe Illustrator 27.3.1, SVG Export Plug-In . SVG Version: 6.00 Build 0)  -->
<svg version="1.1" id="Layer_1" xmlns="http://www.w3.org/2000/svg" xmlns:xlink="http://www.w3.org/1999/xlink" x="0px" y="0px"
	 viewBox="0 0 394.57 120.91" style="enable-background:new 0 0 394.57 120.91;" xml:space="preserve">
<style type="text/css">
	.st0{fill:#ffffff;}
</style>
<path class="st0" d="M240.69,97.2v8.5c0,2.25-1.01,3.56-2.94,3.56c-2.19,0-3-1.12-3-3.25V97.2h-2.83v8.93c0,3.54,1.4,5.57,5.08,5.57
	c1.77,0,3.07-0.86,3.81-2.01l0.47,1.76h2.23V97.2H240.69z M262.33,111.45h2.77V97.2h-2.77V111.45z M161.88,99.34
	c-0.57-1.48-1.92-2.4-3.69-2.4c-1.74,0-2.97,0.82-3.68,1.96l-0.44-1.7h-2.2v14.25h2.77V103c0-2.4,0.94-3.56,2.83-3.56
	c2.04,0,2.79,1.3,2.79,3.46v8.55h2.77v-8.55c0-2.32,0.94-3.46,2.81-3.46c2.04,0,2.77,1.3,2.77,3.46v8.55h2.78v-8.9
	c0-3.56-1.46-5.6-5.11-5.6C164.17,96.94,162.74,97.91,161.88,99.34 M178.25,107.4c0-1.2,0.59-2.09,2.09-2.09h3.21v0.94
	c0,1.86-1.57,3.21-3.32,3.21C178.91,109.46,178.25,108.78,178.25,107.4 M175.72,101.67h2.79c0-1.63,0.86-2.34,2.59-2.34
	c1.69,0,2.38,0.58,2.38,1.88v2.06h-3.47c-2.8,0-4.59,1.71-4.59,4.33c0,2.47,1.32,4.1,4.08,4.1c1.86,0,3.31-0.89,4.1-2.13l0.48,1.88
	h2.21v-9.9c0-2.98-1.62-4.61-5.18-4.61C177.63,96.94,175.72,98.57,175.72,101.67 M193.39,99.39l-0.45-2.19h-2.25v14.25h2.8v-8.09
	c0-2.37,1.52-3.56,4.49-3.56v-2.86C196,96.94,194.08,98.01,193.39,99.39 M272.23,99.03l-0.49-1.83h-2.21v14.25h2.77v-8.46
	c0-2.21,1.11-3.56,3.05-3.56c2.21,0,3.12,1.17,3.12,3.31v8.71h2.78v-8.9c0-3.54-1.43-5.6-5.09-5.6
	C274.31,96.94,272.94,97.83,272.23,99.03 M288.12,102.1c0-1.92,1.04-2.71,2.96-2.71c1.94,0,2.9,0.79,2.9,2.71v0.92h-5.86V102.1z
	 M285.35,102.54v3.54c0,3.79,2.04,5.62,5.78,5.62c3.49,0,5.45-1.52,5.45-4.83h-2.8c0,2.01-0.81,2.38-2.73,2.38
	c-2.09,0-2.92-1.03-2.92-3.1v-0.99h8.65v-2.83c0-3.61-1.96-5.39-5.69-5.39C287.24,96.94,285.35,98.8,285.35,102.54 M354.32,107.4
	c0-1.2,0.59-2.09,2.09-2.09h3.21v0.94c0,1.86-1.57,3.21-3.31,3.21C354.98,109.46,354.32,108.78,354.32,107.4 M351.79,101.67h2.8
	c0-1.63,0.86-2.34,2.58-2.34c1.7,0,2.38,0.58,2.38,1.88v2.06h-3.46c-2.8,0-4.6,1.71-4.6,4.33c0,2.47,1.33,4.1,4.07,4.1
	c1.87,0,3.32-0.89,4.11-2.13l0.49,1.88h2.21v-9.9c0-2.98-1.62-4.61-5.18-4.61C353.71,96.94,351.79,98.57,351.79,101.67
	 M369.46,99.39l-0.44-2.19h-2.25v14.25h2.79v-8.09c0-2.37,1.53-3.56,4.5-3.56v-2.86C372.07,96.94,370.15,98.01,369.46,99.39
	 M247.51,100.96c0,2.06,1.07,3.38,3.39,3.96l3.02,0.8c1.45,0.38,1.72,0.97,1.72,1.88c0,1.15-0.84,1.76-2.61,1.76
	c-1.91,0-2.83-0.71-2.83-2.04v-0.84h-2.8v0.99c0,2.93,2.17,4.25,5.7,4.25c3.29,0,5.33-1.59,5.33-4.2c0-2.19-1.08-3.33-3.54-4
	l-3.17-0.84c-1-0.28-1.42-0.84-1.42-1.8c0-1.07,0.77-1.6,2.38-1.6c1.89,0,2.68,0.58,2.68,1.67v0.71h2.82v-0.84
	c0-2.59-2.06-3.91-5.55-3.91C249.42,96.92,247.51,98.49,247.51,100.96 M300.47,100.96c0,2.06,1.08,3.38,3.39,3.96l3.02,0.8
	c1.45,0.38,1.71,0.97,1.71,1.88c0,1.15-0.84,1.76-2.59,1.76c-1.92,0-2.83-0.71-2.83-2.04v-0.84h-2.8v0.99c0,2.93,2.15,4.25,5.7,4.25
	c3.28,0,5.33-1.59,5.33-4.2c0-2.19-1.09-3.33-3.54-4l-3.17-0.84c-1-0.28-1.42-0.84-1.42-1.8c0-1.07,0.76-1.6,2.38-1.6
	c1.88,0,2.67,0.58,2.67,1.67v0.71h2.82v-0.84c0-2.59-2.06-3.91-5.55-3.91C302.39,96.92,300.47,98.49,300.47,100.96 M314.66,100.96
	c0,2.06,1.07,3.38,3.39,3.96l3.02,0.79c1.44,0.39,1.71,0.97,1.71,1.88c0,1.15-0.83,1.76-2.6,1.76c-1.91,0-2.83-0.71-2.83-2.04v-0.84
	h-2.8v0.99c0,2.93,2.16,4.25,5.7,4.25c3.3,0,5.33-1.59,5.33-4.2c0-2.19-1.08-3.33-3.54-4l-3.17-0.84c-1.01-0.28-1.43-0.84-1.43-1.8
	c0-1.07,0.76-1.6,2.38-1.6c1.89,0,2.67,0.58,2.67,1.67v0.71h2.83v-0.84c0-2.59-2.06-3.91-5.55-3.91
	C316.57,96.92,314.66,98.49,314.66,100.96 M201.62,94.32l-0.61,2.88v9.8c0,3.15,0.83,4.74,4.35,4.74c0.39,0,0.9-0.03,1.4-0.05v-2.75
	c-2.26,0.22-2.94-0.18-2.94-2.12v-7.13h2.94V97.2h-2.94v-2.88H201.62z M219.48,103.63h2.56c2.21,0,3.1,0.59,3.1,2.62
	c0,2.02-1.01,2.47-3.24,2.47h-2.41V103.63z M219.48,96.36h2.9c1.57,0,2.25,0.84,2.25,2.23c0,1.46-0.78,2.44-2.35,2.44h-2.8V96.36z
	 M216.53,93.63v17.82h5.75c3.61,0,5.8-1.38,5.8-4.92c0-2.36-1.27-4.04-3.46-4.43c2.02-0.55,2.97-2.31,2.97-4.17
	c0-2.55-1.5-4.3-4.62-4.3H216.53z M136.45,97.96c0,2.29,1.21,3.95,3.34,4.86l3.76,1.63c1.07,0.48,1.57,1.28,1.57,2.32
	c0,1.46-0.69,2.34-2.8,2.34c-2.07,0-2.93-0.82-2.93-2.27v-1.52h-2.94v1.63c0,3.13,2.38,4.81,5.84,4.81c3.54,0,5.82-1.84,5.82-5.05
	c0-2.14-1.13-3.74-3.32-4.73l-3.9-1.76c-1.01-0.43-1.52-1.1-1.52-2.19c0-1.3,0.86-2.07,2.68-2.07c2.04,0,2.67,0.87,2.67,2.17v1.35
	h2.96V98.1c0-2.92-2.04-4.77-5.58-4.77C138.59,93.33,136.45,95.03,136.45,97.96 M335.72,99.64v5.77c0,3.95,1.62,6.35,6.16,6.35
	c4.77,0,6.16-2.14,6.16-5.89v-0.86h-2.94v0.8c0,2.37-0.73,3.19-3.22,3.19c-2.38,0-3.21-1.12-3.21-3.77v-5.42
	c0-2.62,0.84-3.74,3.21-3.74c2.49,0,3.22,0.79,3.22,3.13v0.74h2.94v-0.77c0-3.71-1.35-5.85-6.09-5.85
	C337.39,93.33,335.72,95.72,335.72,99.64 M262.4,95.67h2.63v-3.06h-2.63V95.67z M379.36,106v-3.36c0-2.24,0.98-3.21,3.12-3.21
	c1.84,0,3.12,1.07,3.12,3.26v3.23c0,2.14-1.21,3.29-3.12,3.29C380.29,109.21,379.36,108.16,379.36,106 M385.6,92.61v6.14
	c-0.74-1.07-2.14-1.81-3.91-1.81c-3.71,0-5.11,2.09-5.11,5.55v3.64c0,3.56,1.43,5.57,5.11,5.57c1.79,0,3.19-0.81,3.93-1.96
	l0.51,1.71h2.21V92.61H385.6z M284.07,31.69l-0.72-9h-11.31V84.5h12.39V52.21c0-10.13,6.74-18.52,16.6-18.52
	c10.22,0,16,7.13,16,17.77V84.5h12.51V51.34c0-18.9-11.07-29.53-25.51-29.53C296.34,21.81,289.72,25.06,284.07,31.69 M123.61,53.71
	c0-11.01,7.21-19.64,18.65-19.64c11.31,0,18.76,8.01,18.76,19.64c0,11.51-7.94,19.65-18.76,19.65
	C131.43,73.36,123.61,64.73,123.61,53.71 M122.52,32.82l-0.72-10.01h-11.67v90.34h12.39V75.49c4.45,7.63,13.72,10.39,20.94,10.39
	c18.4,0,29.95-13.51,29.95-32.16c0-18.65-12.28-32.04-29.95-32.15C135.52,21.56,127.1,25.31,122.52,32.82 M54.44,53.59
	c0-12.63,8.67-20.39,19.25-20.39c25.63,0,25.63,40.91,0,40.91C63.1,74.11,54.44,66.35,54.44,53.59 M42.05,53.59
	c0,21.02,13.11,32.66,30.43,32.54c7.34,0,16.49-3.75,20.45-11.64l0.61,10.01h11.79V22.8H93.3l-0.37,9.76
	c-3.72-7.01-11.79-11.14-20.21-11.14C55.63,21.43,42.05,32.95,42.05,53.59 M361.31,32.69c9.98,0,16.84,5.13,17.56,14.89H342.9
	C344.82,37.82,352.29,32.69,361.31,32.69 M329.79,53.34c0,19.77,12.51,32.66,32,32.66c9.14,0,19.37-3.5,25.5-10.51l-8.06-8.13
	c-3.61,4.25-11.18,6.63-17.2,6.63c-10.83,0-18.3-6.13-19.37-15.52h48.12c2.29-25.15-10.7-37.28-29.84-37.28
	C342.42,21.18,329.79,34.57,329.79,53.34 M15.35,6.41v16.52H3.91v11.14h11.43v29.41c0,14.51,7.33,22.14,20.21,21.77
	c4.21,0,7.82-0.88,11.91-2.75l-3.61-11.01c-2.4,1.25-5.17,2.12-7.57,2.12c-5.78,0-8.54-3.63-8.54-10.13V34.07h17.45V22.94H27.85
	V5.04L15.35,6.41z M180.5,6.41v16.52h-11.43v11.14h11.43v29.41c0,14.51,7.33,22.14,20.21,21.77c4.22,0,7.82-0.88,11.91-2.75
	l-3.61-11.01c-2.4,1.25-5.18,2.12-7.58,2.12c-5.78,0-8.54-3.63-8.54-10.13V34.07h16.95v21.89c0,18.65,10.47,29.53,25.03,29.53
	c8.3,0,14.67-3.12,20.45-10l0.71,9.13h11.2V22.8h-12.39v32.16c0,10.26-6.74,18.65-16.49,18.65c-10.35,0-16.12-7.26-16.12-17.76V22.8
	h-12.4v0.13h-16.84V5.04L180.5,6.41z"/>
</svg>
